<svg id="svg" version="1.1" xmlns="http://www.w3.org/2000/svg" xmlns:xlink="http://www.w3.org/1999/xlink" width="400" height="348.8" viewBox="0, 0, 400,348.8"><g id="svgg"><path id="path0" d="M168.935 37.366 C 118.484 38.161,89.626 42.505,81.234 50.568 C 80.263 51.500,79.428 52.679,79.228 53.396 C 78.728 55.196,78.763 301.646,79.263 303.449 C 80.443 307.700,85.891 310.365,95.462 311.375 C 105.166 312.398,211.988 312.088,229.145 310.987 C 246.911 309.846,264.589 306.292,278.010 301.162 C 308.309 289.582,322.122 266.437,320.991 229.145 C 319.985 195.949,308.524 177.928,283.928 170.869 C 282.209 170.376,280.569 169.887,280.284 169.782 C 279.993 169.675,280.883 169.216,282.317 168.733 C 302.876 161.810,314.497 133.007,310.984 97.681 C 308.038 68.047,289.257 49.589,254.616 42.280 C 234.880 38.115,210.428 36.713,168.935 37.366 M202.908 95.023 C 211.251 99.006,215.437 109.348,214.312 123.193 C 212.946 140.003,207.132 145.701,191.584 145.471 L 185.166 145.375 185.076 119.895 C 185.026 105.881,185.066 94.203,185.165 93.944 C 185.310 93.564,186.774 93.497,192.760 93.595 L 200.175 93.717 202.908 95.023 M203.142 204.740 C 211.205 208.562,215.494 219.506,214.292 233.197 C 212.803 250.170,206.547 255.827,189.703 255.430 L 185.166 255.323 185.076 229.843 C 185.026 215.829,185.063 204.158,185.159 203.908 C 185.296 203.549,186.963 203.475,193.103 203.559 L 200.873 203.665 203.142 204.740 " stroke="none" fill="#fbfbfb" fill-rule="evenodd"></path><path id="path1" d="M351.483 0.247 C 348.436 0.777,340.808 2.559,340.663 2.775 C 340.185 3.488,335.124 4.160,328.796 4.351 C 322.369 4.546,315.358 5.022,312.709 5.444 C 312.054 5.549,307.614 6.090,302.841 6.648 C 298.069 7.205,293.671 7.824,293.068 8.022 C 292.465 8.221,288.438 8.857,284.119 9.437 C 279.799 10.016,276.030 10.594,275.742 10.720 C 275.454 10.847,271.449 11.554,266.841 12.292 C 262.234 13.029,257.129 13.862,255.497 14.143 C 253.866 14.424,251.745 14.749,250.785 14.866 C 249.825 14.983,246.998 15.402,244.503 15.796 C 239.875 16.527,215.664 17.122,214.323 16.538 C 213.725 16.277,211.623 16.201,195.812 15.867 C 189.764 15.740,184.346 15.582,183.770 15.516 C 176.499 14.685,123.179 15.104,113.264 16.071 C 111.536 16.239,107.609 16.618,104.538 16.913 C 95.626 17.770,86.999 18.827,86.136 19.169 C 85.698 19.343,82.513 19.912,79.058 20.434 C 75.602 20.956,72.616 21.508,72.423 21.660 C 72.229 21.811,70.658 22.190,68.932 22.501 C 64.954 23.219,61.457 24.024,60.558 24.429 C 60.175 24.602,57.818 25.237,55.323 25.841 C 52.827 26.444,50.628 27.061,50.436 27.214 C 50.244 27.366,48.595 27.914,46.771 28.433 C 44.948 28.952,42.984 29.585,42.408 29.840 C 41.832 30.096,40.067 30.723,38.485 31.235 C 36.904 31.748,35.524 32.304,35.420 32.473 C 35.316 32.641,35.000 32.691,34.718 32.583 C 34.437 32.475,34.206 32.521,34.205 32.685 C 34.205 32.850,33.459 33.449,32.547 34.016 C 31.636 34.584,30.812 35.153,30.716 35.280 C 30.485 35.586,25.500 37.246,23.926 37.542 C 23.245 37.669,22.688 37.914,22.688 38.084 C 22.688 38.255,22.479 38.394,22.224 38.394 C 21.579 38.394,15.222 40.522,15.009 40.810 C 14.913 40.939,13.970 41.462,12.914 41.972 C 9.436 43.651,5.048 47.720,3.611 50.600 C 3.081 51.662,2.528 52.615,2.382 52.719 C 0.382 54.137,-0.672 68.347,0.530 77.718 C 1.641 86.387,2.540 92.328,2.765 92.496 C 2.894 92.592,3.526 95.497,4.169 98.953 C 4.813 102.408,5.468 105.471,5.626 105.759 C 5.783 106.047,6.396 108.796,6.987 111.867 C 7.578 114.939,8.136 117.766,8.227 118.150 C 8.835 120.721,9.430 125.893,9.632 130.366 C 9.931 136.987,10.307 137.865,12.003 135.893 L 12.804 134.963 13.026 136.584 C 13.148 137.475,13.396 138.483,13.577 138.823 C 13.758 139.163,14.242 140.324,14.654 141.402 C 15.091 142.549,15.719 143.527,16.165 143.758 C 20.298 145.895,21.417 147.790,20.753 151.527 C 19.579 158.139,19.252 167.673,19.905 176.233 C 20.366 182.279,21.548 191.599,21.966 192.496 C 22.146 192.880,22.431 194.247,22.601 195.534 L 22.909 197.874 21.930 198.279 C 21.392 198.502,21.016 198.790,21.096 198.919 C 21.176 199.048,20.742 199.362,20.132 199.617 C 16.885 200.972,15.721 201.687,14.101 203.320 C 13.079 204.350,12.055 205.810,11.697 206.746 C 11.355 207.643,10.939 208.377,10.773 208.377 C 10.607 208.377,10.496 208.495,10.527 208.639 C 10.557 208.783,10.491 209.136,10.379 209.424 C 9.944 210.547,9.450 213.572,9.239 216.405 C 8.898 220.972,8.605 221.448,6.127 221.458 C 3.003 221.470,1.883 223.593,2.865 227.640 C 3.126 228.714,3.145 229.434,2.922 229.734 C 2.735 229.986,2.542 230.742,2.493 231.414 C 2.444 232.086,2.170 233.970,1.885 235.602 C 1.599 237.234,1.217 239.433,1.034 240.489 C 0.559 243.234,0.631 248.358,1.176 250.673 C 1.484 251.983,1.548 253.227,1.365 254.338 C 0.686 258.469,1.650 274.781,2.785 278.360 C 2.967 278.935,3.137 281.709,3.162 284.523 C 3.204 289.137,3.291 289.818,4.047 291.452 C 5.065 293.648,5.071 293.971,4.184 298.504 C 2.733 305.910,2.836 307.356,5.002 310.068 C 5.486 310.674,6.883 312.430,8.106 313.970 C 12.118 319.023,19.747 325.850,22.423 326.783 C 22.953 326.968,23.386 327.232,23.386 327.370 C 23.386 327.594,24.458 328.129,29.163 330.248 C 29.940 330.598,31.982 331.224,33.700 331.639 C 35.418 332.054,37.059 332.476,37.347 332.577 C 39.610 333.370,44.625 333.708,56.370 333.858 C 72.736 334.068,79.632 334.510,80.803 335.424 C 80.995 335.573,81.702 335.811,82.373 335.951 C 84.352 336.364,89.165 337.929,89.354 338.221 C 89.450 338.369,90.442 338.874,91.558 339.343 C 92.674 339.813,93.854 340.419,94.180 340.692 C 94.987 341.364,96.652 342.211,96.815 342.031 C 96.888 341.950,97.287 341.211,97.702 340.388 C 99.736 336.356,100.481 336.482,100.254 340.821 C 100.066 344.404,100.445 345.156,101.959 344.210 C 102.504 343.870,102.698 343.956,103.213 344.766 C 103.549 345.293,103.905 345.803,104.006 345.899 C 104.106 345.995,104.503 346.702,104.887 347.469 C 105.484 348.664,105.767 348.881,106.844 348.971 C 108.498 349.109,108.959 348.048,109.227 343.488 C 109.415 340.292,109.461 340.138,110.233 340.099 C 111.893 340.015,112.776 334.144,111.257 333.292 C 110.521 332.880,110.482 332.057,111.126 330.525 L 111.607 329.382 112.166 330.572 C 112.473 331.227,113.046 334.433,113.439 337.696 C 114.576 347.145,115.116 349.040,116.672 349.040 C 117.354 349.040,117.373 348.902,117.156 345.578 C 116.904 341.737,117.031 341.089,118.116 340.676 C 118.648 340.474,119.088 339.683,119.662 337.904 C 120.103 336.534,120.594 335.495,120.754 335.593 C 121.106 335.811,122.027 340.768,122.492 344.949 C 122.715 346.947,123.031 348.212,123.403 348.584 C 124.032 349.213,124.097 349.160,125.189 347.137 C 126.169 345.322,127.783 344.153,129.310 344.154 C 130.422 344.154,134.477 345.906,134.882 346.561 C 136.553 349.265,142.747 349.365,144.964 346.724 C 146.198 345.253,147.793 345.133,149.294 346.396 C 153.259 349.732,157.277 349.783,158.317 346.510 C 158.658 345.436,159.438 345.853,159.947 347.382 L 160.442 348.866 167.394 348.971 C 171.426 349.032,178.011 348.831,183.072 348.491 C 194.703 347.711,204.159 347.718,209.773 348.510 C 214.296 349.149,215.145 349.129,222.862 348.201 C 226.810 347.727,233.075 347.233,241.012 346.772 C 244.580 346.564,250.309 346.563,293.892 346.763 C 307.618 346.826,320.340 346.744,322.164 346.580 C 339.079 345.057,346.248 344.175,348.342 343.356 C 348.630 343.244,350.044 342.972,351.483 342.751 C 354.278 342.324,357.863 341.342,357.597 341.076 C 357.509 340.987,358.649 340.489,360.132 339.968 C 361.614 339.447,363.881 338.527,365.169 337.922 C 366.456 337.318,367.611 336.824,367.733 336.824 C 367.938 336.824,369.692 336.009,376.466 332.769 C 377.824 332.120,379.050 331.588,379.191 331.588 C 379.332 331.588,380.890 330.903,382.655 330.065 C 384.420 329.228,386.452 328.333,387.171 328.076 C 387.890 327.819,388.569 327.327,388.678 326.981 C 388.788 326.635,389.008 326.353,389.168 326.353 C 389.465 326.353,390.985 321.930,391.448 319.721 C 391.588 319.049,391.833 318.337,391.992 318.139 C 392.286 317.771,392.363 317.465,392.987 314.136 C 393.592 310.913,393.711 310.188,393.933 308.377 C 394.051 307.417,394.272 306.475,394.425 306.283 C 394.821 305.784,396.058 293.185,396.496 285.166 C 396.701 281.422,396.943 277.417,397.034 276.265 C 397.392 271.705,397.504 266.282,397.706 243.805 C 397.821 230.942,397.996 218.534,398.095 216.230 C 399.629 180.275,400.520 103.640,399.653 82.098 C 399.025 66.493,397.790 49.942,397.225 49.564 C 397.082 49.468,396.858 48.447,396.727 47.295 C 396.251 43.091,395.034 36.469,394.699 36.261 C 394.510 36.144,394.381 35.945,394.412 35.819 C 394.572 35.169,392.441 27.893,391.997 27.574 C 391.864 27.478,391.300 26.318,390.744 24.996 C 390.188 23.674,389.569 22.417,389.369 22.204 C 389.169 21.990,388.474 20.755,387.826 19.459 C 387.177 18.163,386.510 17.103,386.342 17.103 C 386.175 17.103,386.038 16.943,386.038 16.746 C 386.038 16.327,384.355 13.698,383.583 12.912 C 383.288 12.612,382.611 11.794,382.077 11.095 C 379.877 8.210,374.029 3.148,372.891 3.143 C 372.667 3.142,372.432 3.017,372.368 2.864 C 372.192 2.446,369.036 1.178,366.616 0.554 C 364.574 0.026,353.985 -0.188,351.483 0.247 M218.325 37.319 C 255.525 40.144,270.586 43.984,286.200 54.625 C 305.214 67.583,311.822 81.595,311.796 108.901 C 311.783 121.762,310.955 128.831,308.322 138.569 C 304.628 152.227,293.597 165.567,283.338 168.782 C 280.964 169.525,280.944 169.475,283.984 170.337 C 285.306 170.712,286.702 171.174,287.086 171.364 C 287.469 171.553,288.647 172.037,289.703 172.439 C 305.925 178.612,316.901 192.955,319.743 211.693 C 320.122 214.188,320.603 217.251,320.813 218.499 C 321.636 223.383,321.612 240.469,320.774 246.422 C 316.869 274.182,305.832 289.221,281.137 300.437 C 278.478 301.644,273.888 303.261,269.459 304.550 C 267.251 305.192,264.895 305.885,264.223 306.090 C 263.551 306.295,260.583 306.938,257.626 307.519 C 254.669 308.100,252.156 308.634,252.041 308.705 C 250.765 309.492,228.491 311.604,216.964 312.031 C 204.299 312.499,104.414 312.509,98.080 312.042 C 87.319 311.249,81.467 308.938,79.316 304.632 L 78.534 303.065 78.534 178.352 L 78.534 53.639 79.425 52.118 C 81.104 49.254,85.912 46.296,91.563 44.650 C 99.298 42.397,99.532 42.344,106.981 41.168 C 117.124 39.567,117.538 39.525,140.140 37.862 C 155.672 36.718,205.825 36.370,218.325 37.319 M185.689 119.737 L 185.689 145.281 192.757 145.132 L 199.825 144.982 202.618 143.801 C 208.403 141.355,210.541 138.339,213.379 128.621 C 213.636 127.744,213.787 124.374,213.787 119.546 L 213.787 111.867 212.633 108.028 C 209.510 97.641,205.048 94.477,193.281 94.304 L 185.689 94.192 185.689 119.737 M185.689 229.290 L 185.689 254.799 191.710 254.793 C 204.589 254.780,209.469 251.567,212.635 241.012 L 213.787 237.173 213.783 229.319 C 213.775 215.959,210.978 209.554,203.316 205.353 L 200.873 204.014 193.281 203.897 L 185.689 203.780 185.689 229.290 " stroke="none" fill="#1c9cdc" fill-rule="evenodd"></path><path id="path2" d="M181.261 36.911 C 184.489 36.968,189.672 36.968,192.780 36.910 C 195.887 36.852,193.246 36.805,186.911 36.805 C 180.576 36.806,178.034 36.853,181.261 36.911 M161.693 37.256 C 162.797 37.325,164.603 37.325,165.707 37.256 C 166.811 37.187,165.908 37.130,163.700 37.130 C 161.492 37.130,160.589 37.187,161.693 37.256 M206.554 37.254 C 207.375 37.328,208.631 37.327,209.346 37.252 C 210.061 37.177,209.389 37.117,207.853 37.118 C 206.318 37.119,205.733 37.181,206.554 37.254 M151.571 37.597 C 152.099 37.677,152.962 37.677,153.490 37.597 C 154.018 37.517,153.586 37.452,152.531 37.452 C 151.475 37.452,151.043 37.517,151.571 37.597 M214.926 37.594 C 215.360 37.678,215.988 37.674,216.322 37.587 C 216.655 37.500,216.300 37.431,215.532 37.435 C 214.764 37.439,214.491 37.511,214.926 37.594 M143.892 37.937 C 144.228 38.025,144.777 38.025,145.113 37.937 C 145.449 37.849,145.175 37.777,144.503 37.777 C 143.831 37.777,143.556 37.849,143.892 37.937 M78.707 178.185 C 78.707 246.335,78.747 274.163,78.796 240.024 C 78.845 205.885,78.845 150.126,78.796 116.115 C 78.747 82.103,78.707 110.035,78.707 178.185 M295.986 63.002 C 297.223 64.250,298.313 65.271,298.409 65.271 C 298.505 65.271,297.572 64.250,296.335 63.002 C 295.098 61.754,294.008 60.733,293.912 60.733 C 293.816 60.733,294.749 61.754,295.986 63.002 M311.425 117.627 C 311.425 118.298,311.497 118.573,311.584 118.237 C 311.672 117.901,311.672 117.352,311.584 117.016 C 311.497 116.680,311.425 116.955,311.425 117.627 M188.220 145.460 C 189.708 145.526,192.142 145.526,193.630 145.460 C 195.118 145.395,193.901 145.341,190.925 145.341 C 187.949 145.341,186.732 145.395,188.220 145.460 M303.665 181.261 C 303.665 181.321,304.175 181.832,304.799 182.395 L 305.934 183.421 304.909 182.286 C 303.953 181.229,303.665 180.991,303.665 181.261 M307.853 185.515 C 308.505 186.187,309.116 186.736,309.212 186.736 C 309.308 186.736,308.854 186.187,308.202 185.515 C 307.551 184.843,306.940 184.293,306.844 184.293 C 306.748 184.293,307.202 184.843,307.853 185.515 M188.936 203.751 C 190.818 203.814,193.802 203.813,195.568 203.750 C 197.334 203.687,195.794 203.636,192.147 203.636 C 188.499 203.636,187.054 203.688,188.936 203.751 M207.330 208.202 C 207.981 208.874,208.592 209.424,208.688 209.424 C 208.784 209.424,208.330 208.874,207.679 208.202 C 207.028 207.531,206.416 206.981,206.320 206.981 C 206.224 206.981,206.679 207.531,207.330 208.202 M321.247 232.984 C 321.248 235.096,321.306 235.915,321.375 234.804 C 321.445 233.693,321.444 231.965,321.374 230.965 C 321.304 229.964,321.247 230.873,321.247 232.984 M214.043 232.461 C 214.043 233.133,214.114 233.408,214.202 233.072 C 214.290 232.736,214.290 232.186,214.202 231.850 C 214.114 231.514,214.043 231.789,214.043 232.461 M195.724 255.046 C 196.156 255.129,196.863 255.129,197.295 255.046 C 197.727 254.962,197.373 254.894,196.510 254.894 C 195.646 254.894,195.292 254.962,195.724 255.046 M304.865 283.857 L 303.839 284.991 304.974 283.966 C 305.598 283.402,306.108 282.892,306.108 282.832 C 306.108 282.562,305.820 282.799,304.865 283.857 M301.025 287.696 L 300.000 288.831 301.134 287.806 C 301.758 287.242,302.269 286.731,302.269 286.671 C 302.269 286.402,301.981 286.639,301.025 287.696 M221.208 311.591 C 221.642 311.674,222.271 311.671,222.604 311.584 C 222.938 311.496,222.583 311.428,221.815 311.432 C 221.047 311.436,220.774 311.507,221.208 311.591 M98.870 311.943 C 99.401 312.024,100.186 312.021,100.616 311.939 C 101.045 311.856,100.611 311.790,99.651 311.793 C 98.691 311.795,98.340 311.863,98.870 311.943 M212.141 311.951 C 213.155 312.021,214.726 312.021,215.631 311.949 C 216.537 311.877,215.707 311.819,213.787 311.820 C 211.867 311.821,211.127 311.880,212.141 311.951 M129.756 312.304 C 143.242 312.354,165.310 312.354,178.796 312.304 C 192.282 312.253,181.248 312.212,154.276 312.212 C 127.304 312.212,116.270 312.253,129.756 312.304 " stroke="none" fill="#72c4e8" fill-rule="evenodd"></path><path id="path3" d="M171.815 37.259 C 174.263 37.319,178.268 37.319,180.716 37.259 C 183.163 37.199,181.161 37.150,176.265 37.150 C 171.370 37.150,169.367 37.199,171.815 37.259 M195.724 37.258 C 197.500 37.322,200.406 37.322,202.182 37.258 C 203.957 37.195,202.504 37.143,198.953 37.143 C 195.401 37.143,193.949 37.195,195.724 37.258 M155.594 37.603 C 156.415 37.677,157.671 37.676,158.386 37.601 C 159.101 37.526,158.429 37.466,156.894 37.467 C 155.358 37.468,154.773 37.530,155.594 37.603 M211.959 37.598 C 212.490 37.678,213.275 37.676,213.705 37.593 C 214.134 37.510,213.700 37.445,212.740 37.447 C 211.780 37.450,211.429 37.518,211.959 37.598 M146.161 37.943 C 146.592 38.026,147.299 38.026,147.731 37.943 C 148.163 37.859,147.810 37.791,146.946 37.791 C 146.082 37.791,145.729 37.859,146.161 37.943 M219.284 37.937 C 219.620 38.025,220.170 38.025,220.506 37.937 C 220.842 37.849,220.567 37.777,219.895 37.777 C 219.223 37.777,218.949 37.849,219.284 37.937 M133.072 38.635 C 133.408 38.723,133.957 38.723,134.293 38.635 C 134.629 38.547,134.354 38.475,133.682 38.475 C 133.010 38.475,132.736 38.547,133.072 38.635 M128.709 38.990 C 129.140 39.073,129.847 39.073,130.279 38.990 C 130.711 38.907,130.358 38.839,129.494 38.839 C 128.630 38.839,128.277 38.907,128.709 38.990 M232.548 38.984 C 232.884 39.072,233.434 39.072,233.770 38.984 C 234.106 38.896,233.831 38.824,233.159 38.824 C 232.487 38.824,232.212 38.896,232.548 38.984 M125.048 39.343 C 125.579 39.423,126.364 39.421,126.794 39.338 C 127.223 39.255,126.789 39.190,125.829 39.192 C 124.869 39.195,124.518 39.263,125.048 39.343 M235.519 39.339 C 235.953 39.423,236.581 39.420,236.915 39.332 C 237.249 39.245,236.894 39.177,236.126 39.181 C 235.358 39.184,235.085 39.256,235.519 39.339 M121.383 39.688 C 121.817 39.772,122.445 39.769,122.779 39.681 C 123.113 39.594,122.757 39.526,121.990 39.530 C 121.222 39.533,120.949 39.605,121.383 39.688 M84.729 47.669 C 83.425 48.377,83.504 48.672,84.817 47.993 C 85.393 47.695,85.864 47.377,85.864 47.286 C 85.864 47.061,85.826 47.074,84.729 47.669 M80.959 50.524 L 79.756 51.832 81.065 50.630 C 82.283 49.510,82.534 49.215,82.267 49.215 C 82.209 49.215,81.620 49.804,80.959 50.524 M293.194 60.558 C 293.845 61.230,294.456 61.780,294.552 61.780 C 294.648 61.780,294.194 61.230,293.543 60.558 C 292.892 59.887,292.280 59.337,292.184 59.337 C 292.088 59.337,292.542 59.887,293.194 60.558 M305.653 76.610 C 305.972 77.279,306.295 77.765,306.371 77.689 C 306.531 77.530,305.471 75.393,305.232 75.393 C 305.144 75.393,305.334 75.940,305.653 76.610 M308.252 83.072 C 308.252 83.360,308.386 83.909,308.551 84.293 C 308.741 84.733,308.851 84.798,308.851 84.468 C 308.851 84.180,308.716 83.630,308.551 83.246 C 308.362 82.806,308.252 82.742,308.252 83.072 M185.224 93.775 C 184.901 94.099,184.930 145.121,185.253 145.321 C 185.397 145.410,185.474 133.879,185.423 119.695 L 185.331 93.907 192.055 93.804 L 198.778 93.701 192.118 93.622 C 188.454 93.578,185.352 93.647,185.224 93.775 M311.095 98.255 C 311.097 99.215,311.165 99.566,311.245 99.035 C 311.325 98.505,311.323 97.719,311.240 97.290 C 311.158 96.861,311.092 97.295,311.095 98.255 M207.664 98.517 C 208.520 99.428,209.266 100.175,209.322 100.175 C 209.584 100.175,209.307 99.861,207.766 98.415 L 206.108 96.859 207.664 98.517 M311.494 108.551 C 311.494 113.063,311.544 114.908,311.604 112.653 C 311.665 110.397,311.665 106.706,311.604 104.450 C 311.544 102.195,311.494 104.040,311.494 108.551 M214.406 119.372 C 214.406 120.236,214.474 120.589,214.557 120.157 C 214.640 119.725,214.640 119.018,214.557 118.586 C 214.474 118.154,214.406 118.508,214.406 119.372 M311.099 119.721 C 311.099 120.777,311.165 121.209,311.245 120.681 C 311.325 120.153,311.325 119.289,311.245 118.761 C 311.165 118.233,311.099 118.665,311.099 119.721 M310.727 123.211 C 310.727 123.883,310.799 124.158,310.886 123.822 C 310.974 123.486,310.974 122.936,310.886 122.600 C 310.799 122.264,310.727 122.539,310.727 123.211 M214.043 124.607 C 214.043 125.279,214.114 125.554,214.202 125.218 C 214.290 124.882,214.290 124.332,214.202 123.997 C 214.114 123.661,214.043 123.935,214.043 124.607 M207.837 140.750 L 206.457 142.234 207.941 140.854 C 209.320 139.571,209.584 139.267,209.320 139.267 C 209.263 139.267,208.596 139.935,207.837 140.750 M305.467 145.041 C 304.882 146.325,304.994 146.598,305.626 145.432 C 305.921 144.887,306.098 144.376,306.018 144.296 C 305.938 144.216,305.690 144.551,305.467 145.041 M196.775 145.448 C 197.210 145.531,197.838 145.528,198.172 145.441 C 198.505 145.353,198.150 145.285,197.382 145.289 C 196.614 145.293,196.341 145.364,196.775 145.448 M294.920 160.820 L 293.717 162.129 295.026 160.926 C 296.244 159.807,296.496 159.511,296.229 159.511 C 296.171 159.511,295.582 160.100,294.920 160.820 M310.995 189.529 C 311.405 190.105,311.819 190.576,311.915 190.576 C 312.011 190.576,311.754 190.105,311.344 189.529 C 310.934 188.953,310.520 188.482,310.424 188.482 C 310.328 188.482,310.585 188.953,310.995 189.529 M185.152 203.927 C 185.060 204.167,185.026 215.829,185.076 229.843 L 185.166 255.323 190.750 255.337 L 196.335 255.351 190.833 255.241 L 185.331 255.131 185.423 229.310 C 185.474 215.109,185.471 203.490,185.417 203.490 C 185.363 203.490,185.243 203.687,185.152 203.927 M204.188 205.332 C 204.188 205.399,204.699 205.827,205.323 206.284 C 206.025 206.798,206.269 206.882,205.962 206.505 C 205.498 205.933,204.188 205.067,204.188 205.332 M320.856 225.305 C 320.860 226.073,320.931 226.346,321.015 225.912 C 321.098 225.478,321.095 224.850,321.008 224.516 C 320.920 224.182,320.852 224.538,320.856 225.305 M214.406 229.319 C 214.406 230.183,214.474 230.537,214.557 230.105 C 214.640 229.673,214.640 228.966,214.557 228.534 C 214.474 228.102,214.406 228.455,214.406 229.319 M320.849 240.838 C 320.849 241.510,320.921 241.784,321.008 241.449 C 321.096 241.113,321.096 240.563,321.008 240.227 C 320.921 239.891,320.849 240.166,320.849 240.838 M200.349 254.450 C 199.630 254.680,199.599 254.735,200.175 254.759 C 200.558 254.775,201.108 254.636,201.396 254.450 C 202.008 254.055,201.583 254.055,200.349 254.450 M80.977 306.632 C 81.629 307.304,82.240 307.853,82.336 307.853 C 82.432 307.853,81.978 307.304,81.326 306.632 C 80.675 305.960,80.064 305.410,79.968 305.410 C 79.872 305.410,80.326 305.960,80.977 306.632 M257.243 307.155 C 256.552 307.377,256.515 307.435,257.068 307.435 C 257.452 307.435,258.159 307.309,258.639 307.155 C 259.330 306.934,259.366 306.876,258.813 306.876 C 258.429 306.876,257.723 307.002,257.243 307.155 M241.623 309.839 C 241.959 309.927,242.509 309.927,242.845 309.839 C 243.181 309.751,242.906 309.680,242.234 309.680 C 241.562 309.680,241.287 309.751,241.623 309.839 M238.831 310.188 C 239.167 310.276,239.716 310.276,240.052 310.188 C 240.388 310.100,240.113 310.029,239.442 310.029 C 238.770 310.029,238.495 310.100,238.831 310.188 M226.095 311.242 C 226.529 311.325,227.157 311.322,227.491 311.235 C 227.825 311.147,227.469 311.079,226.702 311.083 C 225.934 311.087,225.661 311.158,226.095 311.242 M96.422 311.584 C 96.758 311.672,97.308 311.672,97.644 311.584 C 97.980 311.497,97.705 311.425,97.033 311.425 C 96.361 311.425,96.086 311.497,96.422 311.584 M218.242 311.594 C 218.773 311.674,219.558 311.672,219.987 311.590 C 220.417 311.507,219.983 311.441,219.023 311.444 C 218.063 311.446,217.712 311.514,218.242 311.594 M102.880 311.950 C 103.887 312.021,105.537 312.021,106.545 311.950 C 107.552 311.880,106.728 311.822,104.712 311.822 C 102.696 311.822,101.872 311.880,102.880 311.950 M200.436 311.953 C 202.308 312.016,205.371 312.016,207.243 311.953 C 209.114 311.890,207.583 311.839,203.839 311.839 C 200.096 311.839,198.565 311.890,200.436 311.953 " stroke="none" fill="#a7daf2" fill-rule="evenodd"></path><path id="path4" d="M168.674 36.908 C 169.969 36.975,172.090 36.975,173.386 36.908 C 174.682 36.841,173.621 36.786,171.030 36.786 C 168.438 36.786,167.378 36.841,168.674 36.908 M200.100 36.908 C 201.211 36.977,202.939 36.976,203.939 36.906 C 204.940 36.836,204.031 36.779,201.920 36.780 C 199.808 36.781,198.989 36.838,200.100 36.908 M154.538 37.256 C 155.545 37.326,157.195 37.326,158.202 37.256 C 159.210 37.185,158.386 37.127,156.370 37.127 C 154.354 37.127,153.530 37.185,154.538 37.256 M211.423 37.250 C 212.043 37.327,213.142 37.329,213.867 37.253 C 214.591 37.177,214.084 37.114,212.740 37.113 C 211.396 37.111,210.804 37.173,211.423 37.250 M146.346 37.604 C 147.263 37.676,148.677 37.676,149.487 37.602 C 150.297 37.529,149.546 37.470,147.818 37.471 C 146.091 37.472,145.428 37.532,146.346 37.604 M217.706 37.599 C 218.326 37.676,219.425 37.678,220.149 37.602 C 220.873 37.526,220.366 37.463,219.023 37.462 C 217.679 37.460,217.086 37.522,217.706 37.599 M141.104 37.947 C 141.635 38.027,142.420 38.025,142.849 37.942 C 143.279 37.859,142.845 37.794,141.885 37.796 C 140.925 37.799,140.574 37.867,141.104 37.947 M222.953 37.943 C 223.388 38.027,224.016 38.024,224.350 37.936 C 224.683 37.849,224.328 37.780,223.560 37.784 C 222.792 37.788,222.519 37.860,222.953 37.943 M112.478 40.380 C 112.814 40.468,113.364 40.468,113.700 40.380 C 114.036 40.292,113.761 40.221,113.089 40.221 C 112.417 40.221,112.142 40.292,112.478 40.380 M291.798 58.748 C 291.798 58.808,292.308 59.319,292.932 59.882 L 294.066 60.908 293.041 59.773 C 292.086 58.716,291.798 58.478,291.798 58.748 M185.501 94.328 C 185.409 94.568,185.376 106.152,185.427 120.070 L 185.519 145.375 185.604 119.816 L 185.689 94.257 191.885 94.153 L 198.080 94.049 191.874 93.970 C 187.171 93.911,185.627 93.997,185.501 94.328 M311.828 108.377 C 311.829 110.873,311.885 111.848,311.952 110.544 C 312.019 109.240,312.019 107.198,311.951 106.006 C 311.883 104.815,311.828 105.881,311.828 108.377 M214.076 119.546 C 214.078 120.890,214.141 121.397,214.216 120.673 C 214.292 119.949,214.291 118.849,214.214 118.230 C 214.136 117.610,214.075 118.202,214.076 119.546 M207.660 140.576 L 206.457 141.885 207.766 140.682 C 208.984 139.562,209.236 139.267,208.969 139.267 C 208.911 139.267,208.322 139.856,207.660 140.576 M306.108 183.355 C 306.108 183.415,306.619 183.926,307.243 184.490 L 308.377 185.515 307.352 184.380 C 306.396 183.323,306.108 183.086,306.108 183.355 M185.511 229.319 L 185.515 254.974 190.315 254.989 L 195.114 255.005 190.404 254.892 L 185.694 254.780 185.601 229.222 L 185.508 203.665 185.511 229.319 M320.856 221.117 C 320.860 221.885,320.931 222.158,321.015 221.724 C 321.098 221.290,321.095 220.661,321.008 220.328 C 320.920 219.994,320.852 220.349,320.856 221.117 M321.241 226.353 C 321.240 228.080,321.299 228.831,321.372 228.021 C 321.445 227.211,321.446 225.797,321.374 224.880 C 321.302 223.962,321.242 224.625,321.241 226.353 M214.076 229.145 C 214.078 230.489,214.141 230.996,214.216 230.271 C 214.292 229.547,214.291 228.448,214.214 227.828 C 214.136 227.209,214.075 227.801,214.076 229.145 M321.241 239.616 C 321.240 241.344,321.299 242.095,321.372 241.285 C 321.445 240.474,321.446 239.061,321.374 238.143 C 321.302 237.226,321.242 237.888,321.241 239.616 M320.849 244.328 C 320.849 245.000,320.921 245.275,321.008 244.939 C 321.096 244.603,321.096 244.053,321.008 243.717 C 320.921 243.381,320.849 243.656,320.849 244.328 M302.599 286.475 L 301.396 287.784 302.705 286.581 C 303.923 285.461,304.174 285.166,303.908 285.166 C 303.850 285.166,303.261 285.755,302.599 286.475 M229.934 311.242 C 230.368 311.325,230.997 311.322,231.330 311.235 C 231.664 311.147,231.309 311.079,230.541 311.083 C 229.773 311.087,229.500 311.158,229.934 311.242 M93.111 311.591 C 93.545 311.674,94.173 311.671,94.507 311.584 C 94.840 311.496,94.485 311.428,93.717 311.432 C 92.949 311.436,92.676 311.507,93.111 311.591 M224.355 311.600 C 225.176 311.674,226.432 311.673,227.147 311.598 C 227.862 311.523,227.190 311.462,225.654 311.463 C 224.119 311.465,223.534 311.526,224.355 311.600 M96.252 311.940 C 96.686 312.023,97.314 312.020,97.648 311.933 C 97.982 311.845,97.627 311.777,96.859 311.781 C 96.091 311.785,95.818 311.856,96.252 311.940 M218.055 311.945 C 218.675 312.022,219.774 312.023,220.498 311.948 C 221.223 311.872,220.716 311.809,219.372 311.807 C 218.028 311.806,217.435 311.868,218.055 311.945 M101.825 312.294 C 102.444 312.371,103.544 312.372,104.268 312.297 C 104.992 312.221,104.485 312.158,103.141 312.156 C 101.798 312.155,101.205 312.217,101.825 312.294 M205.162 312.301 C 206.369 312.369,208.254 312.368,209.351 312.299 C 210.447 312.230,209.459 312.174,207.155 312.175 C 204.852 312.176,203.955 312.232,205.162 312.301 " stroke="none" fill="#47b0e4" fill-rule="evenodd"></path></g></svg>